<?xml version="1.0" encoding="utf-8"?>
<!-- Generator: Adobe Illustrator 27.5.0, SVG Export Plug-In . SVG Version: 6.00 Build 0)  -->
<svg version="1.1" id="Layer_1" xmlns="http://www.w3.org/2000/svg" xmlns:xlink="http://www.w3.org/1999/xlink" x="0px" y="0px"
	 viewBox="0 0 257.762 135.419" style="enable-background:new 0 0 257.762 135.419;" xml:space="preserve">
<g>
	<g>
		<g>
			<rect x="131.411" y="53.201" style="fill:#D81F2C;" width="118.234" height="55.331"/>
			<path d="M249.645,108.933H131.411c-0.222,0-0.4-0.179-0.4-0.4V53.201c0-0.222,0.179-0.4,0.4-0.4h118.234
				c0.222,0,0.402,0.179,0.402,0.4v55.331C250.047,108.754,249.867,108.933,249.645,108.933z M131.813,108.13h117.432V53.603
				H131.813V108.13z"/>
		</g>
		<path style="fill:#D81F2C;" d="M211.883,79.388c-23.997,7.41-49.438,11.803-74.546,12.534c-1.972,0.058-3.948,0.083-5.926,0.095
			v16.516h118.234V63.761C238.094,70.936,224.714,75.425,211.883,79.388z"/>
		<g>
			<path style="fill:#D81F2C;" d="M131.411,2.462c-0.074,0-0.15,0.001-0.226,0.002c-1.208-0.011-2.432-0.022-3.667-0.03v0.063
				c-14.868,0.135-26.584,0.299-26.584,0.299S88.03,3.33,76.526,15.103C65.021,26.875,54.358,50.688,54.358,50.688L14.511,62.999
				c0,0-8.584,4.009-8.201,12.034c0.385,8.027,0.404,24.553,0.404,24.553l14.647,8.388l55.164,0.527h54.885V2.462z"/>
			<path d="M131.411,108.902H76.526l-55.168-0.526c-0.068-0.001-0.136-0.02-0.195-0.054L6.515,99.935
				c-0.125-0.072-0.202-0.205-0.202-0.349C6.313,99.421,6.289,82.979,5.91,75.054c-0.392-8.201,8.343-12.377,8.431-12.419
				l39.727-12.277c0.979-2.148,11.253-24.362,22.173-35.536C87.722,3.072,100.788,2.399,100.919,2.394
				c0.128-0.002,11.804-0.164,26.419-0.299c0.056-0.036,0.119-0.063,0.183-0.063c0,0,0.001,0,0.001,0l3.667,0.031l0.218-0.002
				c0.001,0,0.003,0,0.004,0c0.106,0,0.208,0.041,0.282,0.115c0.077,0.076,0.12,0.178,0.12,0.286v106.039
				C131.813,108.724,131.634,108.902,131.411,108.902z M21.471,107.574l55.06,0.525h54.48V2.863l-3.303-0.027
				c-0.055,0.038-0.118,0.059-0.185,0.061c-14.696,0.135-26.464,0.299-26.582,0.3c-0.116,0.005-12.877,0.675-24.128,12.187
				C65.489,26.97,54.831,50.614,54.724,50.851c-0.047,0.105-0.138,0.186-0.247,0.22L14.628,63.382
				c-0.031,0.02-8.283,3.976-7.917,11.633c0.356,7.428,0.399,22.299,0.404,24.338L21.471,107.574z"/>
		</g>
		<path style="fill:#D81F2C;" d="M63.361,83.378c-10.867-2.863-21.629-6.447-31.94-10.935c-5.667-2.467-11.537-5.455-16.203-9.662
			l-0.707,0.218c0,0-8.584,4.009-8.201,12.034c0.385,8.027,0.404,24.553,0.404,24.553l14.647,8.388l55.164,0.527h54.885V92.017
			C108.558,92.145,85.415,89.188,63.361,83.378z"/>
		<g>
			<path d="M66.636,80.026c-14.75,0-26.722,12.482-26.899,27.947h53.801C93.36,92.509,81.388,80.026,66.636,80.026z"/>
			<g>
				<g>
					<path style="fill:#4D4E50;" d="M91.039,108.505c0,13.521-10.96,24.482-24.481,24.482c-13.522,0-24.481-10.961-24.481-24.482
						s10.959-24.479,24.481-24.479C80.078,84.025,91.039,94.984,91.039,108.505z"/>
					<path d="M66.558,133.388c-13.72,0-24.882-11.161-24.882-24.883c0-13.72,11.162-24.882,24.882-24.882
						c13.721,0,24.883,11.162,24.883,24.882C91.44,122.227,80.279,133.388,66.558,133.388z M66.558,84.426
						c-13.277,0-24.08,10.802-24.08,24.079c0,13.277,10.803,24.081,24.08,24.081c13.278,0,24.081-10.804,24.081-24.081
						C90.638,95.228,79.835,84.426,66.558,84.426z"/>
				</g>
				<g>
					<path style="fill:#070707;" d="M82.738,108.505c0,8.999-7.244,16.297-16.18,16.297c-8.936,0-16.18-7.298-16.18-16.297
						c0-9.001,7.245-16.295,16.18-16.295C75.494,92.21,82.738,99.504,82.738,108.505z"/>
					<g>
						<path style="fill:#DFD5DB;" d="M82.08,108.533c0,8.619-6.939,15.605-15.496,15.605c-8.559,0-15.496-6.986-15.496-15.605
							c0-8.623,6.937-15.61,15.496-15.61C75.141,92.923,82.08,99.91,82.08,108.533z"/>
						<path d="M66.584,124.34c-8.655,0-15.697-7.091-15.697-15.807c0-8.719,7.042-15.812,15.697-15.812
							c8.655,0,15.696,7.093,15.696,15.812C82.28,117.249,75.239,124.34,66.584,124.34z M66.584,93.124
							c-8.433,0-15.295,6.912-15.295,15.409c0,8.493,6.862,15.405,15.295,15.405c8.434,0,15.295-6.912,15.295-15.405
							C81.879,100.036,75.018,93.124,66.584,93.124z"/>
					</g>
					<g>
						<path style="fill:#DFD5DB;" d="M81.02,108.533c0,8.028-6.463,14.538-14.436,14.538c-7.974,0-14.436-6.51-14.436-14.538
							c0-8.032,6.462-14.543,14.436-14.543C74.556,93.99,81.02,100.501,81.02,108.533z"/>
						<path d="M66.584,123.272c-8.07,0-14.637-6.613-14.637-14.739c0-8.129,6.567-14.744,14.637-14.744
							c8.071,0,14.636,6.615,14.636,14.744C81.22,116.659,74.655,123.272,66.584,123.272z M66.584,94.191
							c-7.85,0-14.235,6.434-14.235,14.342c0,7.905,6.386,14.337,14.235,14.337c7.849,0,14.236-6.432,14.236-14.337
							C80.82,100.625,74.433,94.191,66.584,94.191z"/>
					</g>
					<g>
						<path style="fill:#A19BA1;" d="M79.346,108.533c0,7.016-5.714,12.703-12.762,12.703c-7.049,0-12.762-5.688-12.762-12.703
							c0-7.021,5.713-12.707,12.762-12.707C73.632,95.826,79.346,101.513,79.346,108.533z"/>
						<path d="M66.584,121.438c-7.147,0-12.962-5.79-12.962-12.904c0-7.118,5.815-12.908,12.962-12.908
							c7.147,0,12.962,5.79,12.962,12.908C79.546,115.647,73.731,121.438,66.584,121.438z M66.584,96.027
							c-6.926,0-12.561,5.608-12.561,12.506c0,6.894,5.635,12.504,12.561,12.504c6.927,0,12.561-5.61,12.561-12.504
							C79.145,101.636,73.511,96.027,66.584,96.027z"/>
					</g>
					<path d="M76.981,108.533c0,5.717-4.656,10.351-10.397,10.351c-5.742,0-10.396-4.634-10.396-10.351
						c0-5.72,4.654-10.354,10.396-10.354C72.326,98.179,76.981,102.813,76.981,108.533z"/>
					<g>
						<path style="fill:#DFD5DB;" d="M71.51,112.784c2.415,1.691,4.217,3.667,5.567,5.613c0.798-0.848,1.475-1.772,2.034-2.751
							c-5.359-2.207-12.484-6.21-7.415-10.479c2.425-2.042,4.979-3.314,7.339-4.103c-0.42-0.716-0.903-1.409-1.456-2.067
							c-0.325-0.386-0.668-0.75-1.024-1.095c-3.26,4.778-8.45,10.604-11.496,4.854c-1.53-2.894-2.238-5.758-2.502-8.305
							c-0.93,0.272-1.835,0.641-2.711,1.105c3.288,4.778,6.97,11.89,0.483,12.7c-3.045,0.379-5.805,0.085-8.167-0.51
							c-0.048,1.08,0.02,2.164,0.21,3.234c5.417-1.868,12.801-3.334,11.889,3.024c-0.455,3.163-1.522,5.838-2.766,8.019
							c0.64,0.24,1.289,0.436,1.952,0.584C64.163,116.835,66.129,109.019,71.51,112.784z"/>
						<path d="M63.448,122.809c-0.015,0-0.029-0.001-0.043-0.004c-0.655-0.146-1.322-0.345-1.979-0.592
							c-0.055-0.021-0.098-0.063-0.118-0.12c-0.02-0.055-0.015-0.115,0.015-0.168c1.418-2.487,2.34-5.162,2.74-7.946
							c0.204-1.419-0.011-2.506-0.638-3.229c-1.462-1.688-5.335-1.526-10.987,0.424c-0.057,0.02-0.116,0.014-0.167-0.017
							c-0.05-0.029-0.085-0.081-0.096-0.138c-0.19-1.078-0.262-2.181-0.213-3.279c0.003-0.06,0.032-0.115,0.08-0.151
							c0.049-0.035,0.113-0.046,0.169-0.033c2.665,0.669,5.403,0.842,8.094,0.505c1.615-0.203,2.666-0.821,3.125-1.843
							c1.145-2.55-1.408-7.142-3.748-10.546c-0.032-0.047-0.044-0.105-0.031-0.161c0.015-0.055,0.05-0.103,0.101-0.129
							c0.878-0.467,1.802-0.845,2.748-1.12c0.058-0.018,0.119-0.007,0.168,0.026c0.049,0.033,0.082,0.086,0.088,0.146
							c0.301,2.921,1.136,5.689,2.479,8.229c0.803,1.517,1.808,2.285,2.988,2.285c2.714,0,5.938-3.894,8.165-7.156
							c0.033-0.05,0.086-0.081,0.145-0.087c0.061-0.008,0.119,0.015,0.16,0.056c0.375,0.361,0.725,0.736,1.038,1.109
							c0.543,0.645,1.039,1.35,1.476,2.096c0.03,0.053,0.036,0.115,0.015,0.171c-0.022,0.057-0.067,0.101-0.125,0.121
							c-2.69,0.898-5.138,2.265-7.274,4.064c-1.256,1.059-1.805,2.161-1.632,3.275c0.436,2.79,5.131,5.272,8.995,6.863
							c0.053,0.021,0.094,0.065,0.113,0.12c0.019,0.056,0.013,0.115-0.016,0.165c-0.575,1.01-1.269,1.948-2.062,2.791
							c-0.041,0.042-0.103,0.073-0.161,0.061c-0.06-0.003-0.115-0.036-0.15-0.084c-1.521-2.193-3.376-4.065-5.517-5.563
							c-0.902-0.632-1.742-0.952-2.498-0.952c-3.422,0-4.759,6.664-5.251,10.635c-0.006,0.057-0.037,0.109-0.083,0.141
							C63.529,122.797,63.488,122.809,63.448,122.809z M61.786,121.918c0.497,0.177,0.996,0.327,1.49,0.445
							c0.637-4.966,2.128-10.768,5.621-10.768c0.84,0,1.758,0.346,2.728,1.023c2.112,1.479,3.953,3.315,5.472,5.459
							c0.651-0.715,1.23-1.498,1.724-2.335c-3.916-1.633-8.571-4.163-9.025-7.083c-0.197-1.264,0.399-2.49,1.77-3.646
							c2.112-1.78,4.524-3.143,7.17-4.059c-0.394-0.647-0.834-1.263-1.31-1.829c-0.258-0.307-0.54-0.612-0.841-0.912
							c-2.275,3.303-5.527,7.133-8.36,7.133c-1.34,0-2.464-0.84-3.343-2.496c-1.331-2.519-2.17-5.254-2.498-8.137
							c-0.769,0.24-1.522,0.547-2.244,0.915c2.363,3.47,4.855,8.08,3.655,10.752c-0.519,1.156-1.678,1.854-3.44,2.075
							c-2.659,0.332-5.365,0.177-8.001-0.455c-0.026,0.91,0.033,1.821,0.177,2.714c5.739-1.95,9.623-2.046,11.196-0.229
							c0.708,0.816,0.953,2.009,0.732,3.549C64.063,116.793,63.165,119.443,61.786,121.918z"/>
					</g>
					<g>
						<path style="fill:#DFD5DB;" d="M73.005,109.2c2.94-0.016,5.544,0.552,7.761,1.358c0.165-1.151,0.193-2.303,0.086-3.426
							c-5.64,1.303-13.754,2.166-12.052-4.265c0.815-3.074,2.176-5.597,3.655-7.611c-0.754-0.343-1.546-0.63-2.373-0.846
							c-0.488-0.127-0.976-0.227-1.462-0.3c0.066,5.796-0.848,13.568-6.623,10.634c-2.908-1.478-5.123-3.407-6.795-5.336
							c-0.604,0.759-1.136,1.587-1.584,2.475c5.421,1.999,12.498,5.677,7.657,10.103c-2.271,2.078-4.697,3.438-6.965,4.321
							c0.575,0.911,1.254,1.758,2.02,2.522c3.359-4.672,8.558-10.151,11.447-4.425c1.44,2.851,2.096,5.657,2.326,8.159
							c0.661-0.174,1.303-0.393,1.929-0.655C69.315,116.776,66.452,109.244,73.005,109.2z"/>
						<path d="M70.102,122.766c-0.041,0-0.083-0.013-0.116-0.036c-0.048-0.034-0.08-0.088-0.084-0.147
							c-0.261-2.854-1.036-5.575-2.305-8.088c-0.784-1.554-1.793-2.342-2.997-2.342c-2.662,0-5.879,3.695-8.107,6.795
							c-0.035,0.048-0.088,0.077-0.147,0.082c-0.062,0.007-0.117-0.015-0.158-0.058c-0.778-0.777-1.466-1.637-2.047-2.556
							c-0.032-0.051-0.04-0.113-0.021-0.171c0.019-0.057,0.062-0.102,0.117-0.124c2.569-1.001,4.892-2.443,6.903-4.282
							c1.211-1.108,1.717-2.23,1.499-3.336c-0.538-2.744-5.24-5.011-9.09-6.431c-0.054-0.019-0.096-0.062-0.118-0.114
							c-0.021-0.054-0.018-0.113,0.008-0.163c0.451-0.893,0.992-1.737,1.607-2.511c0.037-0.045,0.093-0.073,0.152-0.074
							c0.067,0.009,0.118,0.024,0.156,0.068c1.919,2.215,4.184,3.993,6.734,5.288c1.741,0.886,3.135,0.816,4.155-0.215
							c1.874-1.896,2.218-6.614,2.177-10.239c0-0.058,0.025-0.114,0.069-0.153c0.044-0.039,0.104-0.055,0.163-0.047
							c0.504,0.076,1.001,0.181,1.481,0.304c0.813,0.212,1.623,0.502,2.406,0.859c0.055,0.025,0.096,0.073,0.112,0.132
							c0.014,0.059,0.003,0.121-0.033,0.169c-1.685,2.294-2.904,4.832-3.624,7.544c-0.386,1.456-0.268,2.603,0.35,3.404
							c0.779,1.012,2.375,1.526,4.741,1.526c1.838,0,4.099-0.308,6.723-0.914c0.057-0.014,0.116,0,0.163,0.033
							c0.047,0.032,0.078,0.086,0.083,0.145c0.109,1.141,0.079,2.31-0.087,3.473c-0.008,0.063-0.043,0.113-0.095,0.146
							c-0.052,0.031-0.114,0.036-0.173,0.017c-2.453-0.895-5-1.349-7.567-1.349h-0.124c-1.626,0.012-2.742,0.504-3.314,1.464
							c-1.437,2.401,0.576,7.281,2.518,10.951c0.026,0.05,0.03,0.109,0.011,0.162c-0.019,0.053-0.06,0.096-0.111,0.117
							c-0.64,0.268-1.298,0.491-1.957,0.664C70.134,122.763,70.118,122.766,70.102,122.766z M64.6,111.751
							c1.368,0,2.498,0.861,3.356,2.563c1.255,2.489,2.036,5.178,2.323,7.995c0.495-0.139,0.987-0.307,1.472-0.501
							c-1.957-3.738-3.911-8.631-2.405-11.151c0.651-1.087,1.88-1.645,3.658-1.656h0.126c2.533,0,5.045,0.433,7.471,1.287
							c0.123-0.974,0.146-1.95,0.072-2.908c-2.559,0.58-4.773,0.872-6.588,0.872c-2.497,0-4.2-0.565-5.059-1.683
							c-0.697-0.905-0.837-2.169-0.418-3.751c0.71-2.683,1.901-5.196,3.541-7.478c-0.692-0.302-1.403-0.548-2.116-0.734
							c-0.391-0.103-0.797-0.188-1.207-0.259c0.023,3.668-0.366,8.335-2.295,10.287c-1.145,1.156-2.713,1.26-4.623,0.29
							c-2.525-1.283-4.777-3.03-6.695-5.198c-0.492,0.639-0.932,1.327-1.311,2.051c3.905,1.458,8.569,3.776,9.132,6.647
							c0.246,1.253-0.3,2.503-1.623,3.711c-1.988,1.818-4.275,3.254-6.799,4.27c0.493,0.752,1.063,1.463,1.694,2.114
							C58.583,115.387,61.824,111.751,64.6,111.751z"/>
					</g>
					<g>
						<path style="fill:#DFD5DB;" d="M69.671,108.504c0,1.704-1.369,3.082-3.06,3.082c-1.692,0-3.063-1.378-3.063-3.082
							s1.371-3.082,3.063-3.082C68.303,105.422,69.671,106.8,69.671,108.504z"/>
						<path d="M66.612,111.787c-1.799,0-3.263-1.473-3.263-3.283c0-1.811,1.464-3.283,3.263-3.283c1.798,0,3.26,1.473,3.26,3.283
							C69.872,110.314,68.41,111.787,66.612,111.787z M66.612,105.623c-1.578,0-2.862,1.292-2.862,2.881
							c0,1.588,1.284,2.882,2.862,2.882c1.577,0,2.859-1.294,2.859-2.882C69.471,106.915,68.189,105.623,66.612,105.623z"/>
					</g>
					<path d="M69.311,108.501c0,1.521-1.224,2.758-2.739,2.758c-1.511,0-2.737-1.236-2.737-2.758c0-1.525,1.226-2.758,2.737-2.758
						C68.086,105.743,69.311,106.976,69.311,108.501z"/>
					<path style="fill:#59575B;" d="M69.027,108.531c0,1.359-1.094,2.461-2.443,2.461c-1.349,0-2.444-1.102-2.444-2.461
						c0-1.359,1.095-2.46,2.444-2.46C67.933,106.071,69.027,107.172,69.027,108.531z"/>
				</g>
			</g>
			<path style="fill:#706F70;" d="M58.447,87.745c0,0-11.438,4.148-13.712,15.651c0,0-0.402,1.539,0.467,2.142
				c0,0,0.536,0.6,0.938-0.669c0.402-1.271,2.542-14.247,18.193-16.724c0,0,2.609,0.134,2.609-0.734
				C66.942,86.541,62.861,86.074,58.447,87.745z"/>
		</g>
		<g>
			<path d="M198.126,76.644c-16.324,0-29.574,14.412-29.769,32.269h59.541C227.703,91.056,214.452,76.644,198.126,76.644z"/>
			<g>
				<path d="M196.895,79.626c-14.749,0-26.722,12.482-26.899,27.947h53.801C223.619,92.108,211.646,79.626,196.895,79.626z"/>
				<g>
					<g>
						<path style="fill:#4D4E50;" d="M221.297,108.104c0,13.52-10.961,24.481-24.481,24.481c-13.521,0-24.48-10.962-24.48-24.481
							c0-13.521,10.959-24.481,24.48-24.481C210.336,83.623,221.297,94.583,221.297,108.104z"/>
						<path d="M196.816,132.986c-13.72,0-24.882-11.161-24.882-24.882c0-13.72,11.162-24.883,24.882-24.883
							c13.721,0,24.883,11.163,24.883,24.883C221.699,121.825,210.537,132.986,196.816,132.986z M196.816,84.025
							c-13.277,0-24.079,10.801-24.079,24.079c0,13.277,10.802,24.08,24.079,24.08c13.278,0,24.081-10.803,24.081-24.08
							C220.896,94.826,210.094,84.025,196.816,84.025z"/>
					</g>
					<g>
						<path style="fill:#070707;" d="M212.997,108.104c0,8.998-7.244,16.296-16.181,16.296c-8.936,0-16.179-7.298-16.179-16.296
							c0-9.002,7.244-16.297,16.179-16.297C205.752,91.808,212.997,99.103,212.997,108.104z"/>
						<g>
							<path style="fill:#DFD5DB;" d="M212.338,108.131c0,8.619-6.938,15.606-15.494,15.606c-8.561,0-15.498-6.987-15.498-15.606
								c0-8.622,6.937-15.609,15.498-15.609C205.399,92.521,212.338,99.509,212.338,108.131z"/>
							<path d="M196.844,123.938c-8.655,0-15.698-7.091-15.698-15.808c0-8.718,7.043-15.81,15.698-15.81
								c8.654,0,15.695,7.092,15.695,15.81C212.539,116.848,205.498,123.938,196.844,123.938z M196.844,92.722
								c-8.435,0-15.296,6.912-15.296,15.409c0,8.494,6.862,15.405,15.296,15.405c8.434,0,15.293-6.911,15.293-15.405
								C212.137,99.634,205.277,92.722,196.844,92.722z"/>
						</g>
						<g>
							<path style="fill:#DFD5DB;" d="M211.279,108.131c0,8.03-6.464,14.539-14.435,14.539c-7.975,0-14.438-6.509-14.438-14.539
								s6.462-14.542,14.438-14.542C204.815,93.589,211.279,100.101,211.279,108.131z"/>
							<path d="M196.844,122.87c-8.072,0-14.638-6.612-14.638-14.739c0-8.128,6.566-14.742,14.638-14.742
								c8.07,0,14.635,6.614,14.635,14.742C211.479,116.258,204.914,122.87,196.844,122.87z M196.844,93.789
								c-7.851,0-14.237,6.435-14.237,14.342c0,7.906,6.386,14.338,14.237,14.338c7.848,0,14.234-6.432,14.234-14.338
								C211.078,100.224,204.692,93.789,196.844,93.789z"/>
						</g>
						<g>
							<path style="fill:#A19BA1;" d="M209.604,108.131c0,7.018-5.714,12.705-12.76,12.705c-7.051,0-12.763-5.688-12.763-12.705
								c0-7.02,5.712-12.706,12.763-12.706C203.89,95.425,209.604,101.111,209.604,108.131z"/>
							<path d="M196.844,121.037c-7.148,0-12.963-5.79-12.963-12.906c0-7.117,5.815-12.906,12.963-12.906
								c7.147,0,12.961,5.789,12.961,12.906C209.805,115.247,203.991,121.037,196.844,121.037z M196.844,95.625
								c-6.928,0-12.563,5.61-12.563,12.506c0,6.895,5.635,12.504,12.563,12.504c6.925,0,12.56-5.609,12.56-12.504
								C209.403,101.235,203.769,95.625,196.844,95.625z"/>
						</g>
						<path d="M207.24,108.131c0,5.718-4.656,10.352-10.396,10.352c-5.744,0-10.397-4.634-10.397-10.352
							c0-5.719,4.654-10.353,10.397-10.353C202.584,97.778,207.24,102.412,207.24,108.131z"/>
						<g>
							<path style="fill:#DFD5DB;" d="M201.769,112.383c2.415,1.692,4.217,3.667,5.567,5.614c0.799-0.849,1.476-1.773,2.034-2.752
								c-5.358-2.207-12.484-6.209-7.415-10.479c2.425-2.042,4.979-3.313,7.339-4.103c-0.42-0.717-0.903-1.409-1.456-2.068
								c-0.325-0.386-0.668-0.749-1.024-1.094c-3.258,4.779-8.45,10.604-11.496,4.854c-1.53-2.894-2.238-5.758-2.501-8.304
								c-0.929,0.271-1.836,0.64-2.71,1.104c3.287,4.779,6.97,11.891,0.482,12.7c-3.044,0.38-5.805,0.085-8.167-0.51
								c-0.048,1.081,0.02,2.164,0.21,3.235c5.417-1.869,12.801-3.335,11.889,3.023c-0.455,3.164-1.522,5.838-2.765,8.019
								c0.64,0.239,1.288,0.436,1.951,0.583C194.421,116.434,196.389,108.617,201.769,112.383z"/>
							<path d="M193.706,122.408c-0.015,0-0.029-0.002-0.044-0.005c-0.654-0.146-1.321-0.345-1.979-0.591
								c-0.055-0.021-0.098-0.064-0.119-0.121c-0.02-0.055-0.015-0.116,0.015-0.168c1.419-2.487,2.341-5.162,2.741-7.946
								c0.203-1.418-0.012-2.505-0.639-3.229c-1.462-1.688-5.334-1.527-10.986,0.424c-0.056,0.02-0.117,0.014-0.168-0.017
								c-0.05-0.029-0.085-0.081-0.096-0.137c-0.19-1.079-0.262-2.181-0.213-3.28c0.003-0.06,0.032-0.114,0.081-0.15
								c0.049-0.036,0.114-0.047,0.168-0.035c2.665,0.67,5.403,0.843,8.094,0.505c1.615-0.201,2.667-0.821,3.125-1.841
								c1.144-2.552-1.407-7.143-3.749-10.546c-0.032-0.048-0.042-0.105-0.029-0.162c0.013-0.056,0.049-0.102,0.1-0.129
								c0.878-0.467,1.803-0.845,2.748-1.121c0.059-0.017,0.119-0.006,0.169,0.026c0.05,0.033,0.082,0.087,0.088,0.146
								c0.302,2.92,1.136,5.689,2.479,8.23c0.804,1.516,1.809,2.284,2.989,2.284c2.714,0,5.938-3.893,8.165-7.157
								c0.032-0.048,0.086-0.079,0.145-0.086c0.06-0.008,0.118,0.015,0.16,0.055c0.374,0.362,0.724,0.737,1.038,1.11
								c0.542,0.645,1.039,1.351,1.476,2.096c0.031,0.052,0.036,0.114,0.015,0.172c-0.021,0.056-0.067,0.1-0.125,0.12
								c-2.69,0.898-5.138,2.266-7.274,4.065c-1.256,1.058-1.806,2.16-1.631,3.274c0.435,2.791,5.13,5.271,8.994,6.863
								c0.053,0.021,0.094,0.066,0.113,0.121c0.019,0.055,0.013,0.113-0.015,0.164c-0.576,1.01-1.269,1.949-2.062,2.79
								c-0.041,0.043-0.104,0.074-0.16,0.063c-0.061-0.003-0.116-0.036-0.149-0.086c-1.521-2.192-3.377-4.064-5.518-5.563
								c-0.902-0.632-1.742-0.951-2.498-0.951c-3.422,0-4.759,6.664-5.25,10.636c-0.007,0.056-0.037,0.107-0.083,0.139
								C193.788,122.396,193.747,122.408,193.706,122.408z M192.046,121.516c0.495,0.178,0.995,0.328,1.489,0.445
								c0.638-4.964,2.128-10.767,5.621-10.767c0.84,0,1.758,0.345,2.728,1.023c2.113,1.481,3.953,3.316,5.474,5.459
								c0.65-0.715,1.229-1.499,1.723-2.334c-3.916-1.634-8.57-4.164-9.026-7.085c-0.197-1.264,0.399-2.489,1.77-3.645
								c2.112-1.779,4.525-3.143,7.17-4.059c-0.394-0.647-0.833-1.263-1.31-1.828c-0.258-0.308-0.54-0.612-0.84-0.912
								c-2.276,3.301-5.528,7.133-8.36,7.133c-1.339,0-2.465-0.84-3.343-2.498c-1.331-2.518-2.17-5.252-2.498-8.136
								c-0.769,0.239-1.522,0.548-2.244,0.916c2.363,3.469,4.855,8.079,3.655,10.75c-0.519,1.158-1.676,1.855-3.44,2.076
								c-2.659,0.332-5.365,0.178-8.001-0.454c-0.025,0.908,0.033,1.819,0.177,2.713c5.74-1.949,9.623-2.045,11.197-0.23
								c0.708,0.817,0.954,2.011,0.732,3.55C194.322,116.392,193.423,119.042,192.046,121.516z"/>
						</g>
						<g>
							<path style="fill:#DFD5DB;" d="M203.263,108.799c2.94-0.016,5.544,0.553,7.761,1.359c0.165-1.152,0.193-2.303,0.087-3.427
								c-5.64,1.302-13.754,2.166-12.052-4.264c0.816-3.075,2.176-5.598,3.656-7.611c-0.754-0.344-1.545-0.631-2.373-0.847
								c-0.488-0.127-0.976-0.226-1.461-0.3c0.066,5.795-0.848,13.568-6.624,10.634c-2.908-1.477-5.123-3.407-6.793-5.335
								c-0.605,0.759-1.137,1.587-1.586,2.474c5.421,1.999,12.498,5.677,7.657,10.103c-2.271,2.078-4.696,3.438-6.965,4.322
								c0.576,0.91,1.254,1.757,2.02,2.521c3.359-4.671,8.558-10.151,11.447-4.426c1.44,2.853,2.096,5.658,2.326,8.161
								c0.661-0.175,1.304-0.395,1.93-0.655C199.575,116.375,196.71,108.843,203.263,108.799z"/>
							<path d="M200.36,122.364c-0.041,0-0.082-0.013-0.116-0.036c-0.048-0.034-0.079-0.088-0.084-0.147
								c-0.262-2.853-1.037-5.574-2.305-8.088c-0.785-1.553-1.794-2.342-2.998-2.342c-2.662,0-5.878,3.695-8.107,6.794
								c-0.034,0.049-0.088,0.079-0.147,0.084c-0.062,0.006-0.116-0.017-0.158-0.059c-0.777-0.778-1.465-1.637-2.046-2.555
								c-0.032-0.053-0.041-0.113-0.022-0.172c0.019-0.056,0.062-0.102,0.118-0.123c2.569-1.002,4.892-2.444,6.903-4.283
								c1.211-1.108,1.716-2.231,1.5-3.337c-0.538-2.743-5.24-5.01-9.09-6.43c-0.054-0.02-0.096-0.062-0.116-0.114
								c-0.022-0.054-0.019-0.113,0.006-0.163c0.451-0.893,0.992-1.737,1.608-2.511c0.037-0.045,0.093-0.073,0.152-0.074
								c0.068,0.009,0.117,0.024,0.155,0.068c1.919,2.215,4.184,3.993,6.734,5.288c1.741,0.886,3.134,0.816,4.155-0.215
								c1.873-1.896,2.218-6.614,2.177-10.238c-0.001-0.059,0.024-0.114,0.068-0.154c0.045-0.039,0.104-0.055,0.163-0.047
								c0.504,0.077,1.001,0.181,1.482,0.305c0.812,0.211,1.622,0.501,2.405,0.858c0.055,0.025,0.096,0.074,0.112,0.132
								c0.014,0.058,0.002,0.12-0.033,0.169c-1.686,2.294-2.904,4.832-3.624,7.544c-0.386,1.457-0.269,2.603,0.349,3.403
								c0.78,1.013,2.375,1.527,4.741,1.527c1.837,0,4.099-0.307,6.723-0.914c0.057-0.015,0.117,0,0.164,0.033
								c0.046,0.033,0.077,0.086,0.081,0.144c0.109,1.142,0.079,2.312-0.087,3.475c-0.009,0.061-0.043,0.113-0.095,0.145
								c-0.053,0.031-0.115,0.035-0.172,0.017c-2.455-0.896-5.002-1.348-7.569-1.348h-0.124c-1.626,0.01-2.741,0.503-3.314,1.462
								c-1.437,2.401,0.576,7.282,2.518,10.952c0.026,0.05,0.03,0.109,0.011,0.161c-0.018,0.054-0.059,0.096-0.111,0.118
								c-0.641,0.268-1.299,0.492-1.957,0.665C200.393,122.361,200.377,122.364,200.36,122.364z M194.858,111.35
								c1.368,0,2.498,0.862,3.357,2.563c1.255,2.488,2.036,5.177,2.323,7.996c0.494-0.141,0.987-0.308,1.472-0.502
								c-1.957-3.739-3.912-8.632-2.405-11.151c0.651-1.088,1.88-1.645,3.657-1.657h0.126c2.533,0,5.045,0.434,7.471,1.288
								c0.123-0.974,0.148-1.951,0.072-2.908c-2.559,0.579-4.773,0.873-6.588,0.873c-2.497,0-4.199-0.566-5.06-1.684
								c-0.697-0.905-0.837-2.169-0.417-3.752c0.71-2.683,1.901-5.195,3.541-7.477c-0.691-0.302-1.403-0.549-2.116-0.735
								c-0.391-0.101-0.796-0.188-1.206-0.258c0.023,3.668-0.367,8.336-2.295,10.287c-1.143,1.156-2.713,1.261-4.623,0.29
								c-2.525-1.283-4.776-3.03-6.694-5.199c-0.493,0.641-0.933,1.328-1.312,2.051c3.906,1.46,8.569,3.777,9.133,6.649
								c0.245,1.252-0.3,2.501-1.623,3.71c-1.988,1.819-4.275,3.255-6.799,4.271c0.494,0.753,1.063,1.463,1.695,2.115
								C188.842,114.984,192.083,111.35,194.858,111.35z"/>
						</g>
						<g>
							<path style="fill:#DFD5DB;" d="M199.93,108.103c0,1.704-1.369,3.083-3.06,3.083c-1.692,0-3.062-1.379-3.062-3.083
								s1.37-3.082,3.062-3.082C198.561,105.021,199.93,106.398,199.93,108.103z"/>
							<path d="M196.87,111.386c-1.799,0-3.262-1.472-3.262-3.283c0-1.81,1.463-3.282,3.262-3.282c1.798,0,3.26,1.473,3.26,3.282
								C200.13,109.914,198.668,111.386,196.87,111.386z M196.87,105.221c-1.578,0-2.862,1.293-2.862,2.882
								c0,1.589,1.284,2.882,2.862,2.882c1.577,0,2.859-1.293,2.859-2.882C199.729,106.514,198.447,105.221,196.87,105.221z"/>
						</g>
						<path d="M199.57,108.1c0,1.522-1.225,2.758-2.739,2.758c-1.511,0-2.737-1.235-2.737-2.758c0-1.524,1.226-2.757,2.737-2.757
							C198.345,105.343,199.57,106.575,199.57,108.1z"/>
						<path style="fill:#59575B;" d="M199.286,108.129c0,1.359-1.094,2.462-2.442,2.462c-1.35,0-2.445-1.103-2.445-2.462
							c0-1.359,1.095-2.459,2.445-2.459C198.191,105.67,199.286,106.77,199.286,108.129z"/>
					</g>
				</g>
				<path style="fill:#706F70;" d="M188.706,87.344c0,0-11.438,4.147-13.712,15.651c0,0-0.403,1.539,0.468,2.142
					c0,0,0.536,0.6,0.937-0.67c0.401-1.271,2.542-14.246,18.193-16.722c0,0,2.609,0.133,2.609-0.735
					C197.201,86.14,193.12,85.673,188.706,87.344z"/>
			</g>
		</g>
		<g>
			<path style="fill:#505254;" d="M4.268,94.704l18.06-0.269c0,0,5.217-0.401,4.949,5.754l0.268,9.363c0,0,0.133,1.872-0.936,2.14
				c-1.071,0.269-13.913,0-13.913,0s-4.282-0.133-5.486-4.279C6.006,103.265,4.268,94.704,4.268,94.704z"/>
			<path style="fill:#282A2C;" d="M22.526,112.213c-4.079,0-9.781-0.117-9.838-0.118c-0.049-0.002-4.592-0.193-5.863-4.57
				c-1.194-4.115-2.933-12.654-2.951-12.74c-0.022-0.116,0.007-0.238,0.082-0.332c0.075-0.094,0.186-0.148,0.306-0.149l18.056-0.269
				c0.004,0,0.08-0.004,0.203-0.004c0.693,0,2.445,0.145,3.739,1.495c1.029,1.076,1.507,2.651,1.419,4.681l0.268,9.336
				c0.005,0.073,0.141,2.194-1.239,2.541C26.481,112.14,25.803,112.213,22.526,112.213z M4.759,95.099
				c0.383,1.853,1.814,8.676,2.837,12.202c1.11,3.823,5.072,3.99,5.112,3.99c0.053,0.002,5.746,0.119,9.817,0.119
				c3.212,0,3.857-0.074,3.986-0.105c0.606-0.152,0.661-1.323,0.632-1.724l-0.269-9.382c0.08-1.831-0.324-3.207-1.196-4.117
				c-1.109-1.16-2.699-1.25-3.159-1.25c-0.097,0-0.155,0.003-0.163,0.005L4.759,95.099z"/>
		</g>
		<g>
			<path style="fill:#181A1B;" d="M14.971,99.318c0,0,7.892-1.203,9.095,2.408c1.204,3.612,2.007,7.092,0.804,7.224
				C23.666,109.084,16.576,105.875,14.971,99.318z"/>
			<path style="fill:#282A2C;" d="M24.79,109.356c-1.484,0-8.586-3.313-10.209-9.942c-0.026-0.109-0.006-0.224,0.056-0.318
				c0.063-0.094,0.162-0.156,0.273-0.173c0.052-0.009,1.311-0.198,2.915-0.198c3.705,0,5.995,0.996,6.622,2.875
				c1.999,6,1.367,6.988,1.16,7.313c-0.163,0.254-0.404,0.406-0.694,0.439C24.899,109.353,24.805,109.356,24.79,109.356z
				 M15.477,99.659c1.717,5.908,8.135,8.896,9.313,8.896v0.4l0.035-0.402c0.035-0.005,0.067-0.013,0.107-0.074
				c0.148-0.231,0.498-1.396-1.246-6.625c-0.641-1.922-3.541-2.325-5.86-2.325C16.838,99.528,15.974,99.604,15.477,99.659z"/>
		</g>
		<polygon style="fill:#706F70;" points="8.299,106.343 5.824,95.785 23.197,95.785 7.646,97.162 		"/>
		<g>
			<g>
				<path style="fill:#646668;" d="M250.856,97.957l-21.542,3.773c0,0-1.424,0.551-1.197,2.299c0,0,0.97,3.29,0.873,6.326
					l0.042,0.249c0.274,0.959,0.681,1.735,1.421,2.256h18.914c0,0,1.845,0.967,2.718-1.241l1.617-11.269
					C253.701,100.351,253.701,97.773,250.856,97.957z"/>
				<path d="M250.286,113.348L250.286,113.348c-0.462,0-0.836-0.158-0.95-0.21h-18.883c-0.03,0-0.059-0.01-0.086-0.029
					c-0.708-0.5-1.19-1.263-1.514-2.401l-0.051-0.288c-0.003-0.025-0.006-0.051-0.004-0.077c0.093-2.938-0.85-6.173-0.859-6.205
					c-0.005-0.02-0.009-0.038-0.011-0.057c-0.205-1.581,0.784-2.403,1.335-2.617l21.57-3.779c0.117-0.009,0.214-0.011,0.308-0.011
					c2.723,0,2.755,2.65,2.755,2.678c0,0.018-0.001,0.036-0.003,0.054l-1.618,11.271c-0.004,0.027-0.012,0.055-0.021,0.08
					C251.733,113.07,250.896,113.348,250.286,113.348z M230.498,112.585h18.869c0.022,0,0.046,0.006,0.068,0.017
					c0.002,0.003,0.378,0.194,0.85,0.194l0,0c0.727,0,1.27-0.429,1.615-1.275l1.606-11.194c-0.01-0.254-0.168-2.253-2.642-2.093
					l-21.526,3.771c-0.024,0.012-1.207,0.495-1.035,1.948c0.103,0.352,0.967,3.441,0.882,6.376l0.036,0.211
					C229.496,111.498,229.894,112.144,230.498,112.585z"/>
			</g>
			<path style="opacity:0.5;fill:#646668;" d="M251.634,97.988c1.146,1.227,0.414,4.295-0.225,6.652
				c-1.388,5.126-14.297,5.571-16.925,5.663c-1.365,0.049-3.456,0.704-4.531-0.867c-0.345-0.506-0.403-1.394-0.469-2.042
				c-0.127-1.26-0.488-2.076-0.91-3.163c-0.204-0.523-0.311-0.974-0.325-1.403c-0.128,0.316-0.197,0.71-0.133,1.201
				c0,0,0.97,3.29,0.873,6.326l0.042,0.249c0.274,0.959,0.681,1.735,1.421,2.256h18.914c0,0,1.845,0.967,2.718-1.241l1.617-11.269
				C253.701,100.351,253.695,98.28,251.634,97.988z"/>
			<path style="fill:#5E5F62;" d="M228.894,103.983c0,0-0.032-1.195,0.872-1.519c0.906-0.32,20.961-3.816,20.961-3.816l-20.734,4.23
				C229.992,102.879,229.151,103.063,228.894,103.983z"/>
		</g>
		<g>
			<path style="fill:#E3F5F9;" d="M128.032,7.398c-12.282,0.059-22.68,0.203-22.68,0.203S84.88,9.15,69.063,51.222h58.969V7.398z"/>
			<path style="fill:#242425;" d="M128.032,51.623H69.063c-0.131,0-0.255-0.064-0.33-0.174c-0.075-0.107-0.093-0.246-0.045-0.369
				C84.414,9.251,104.476,7.266,105.322,7.202c0.129-0.003,10.565-0.148,22.709-0.206c0,0,0,0,0.001,0
				c0.106,0,0.208,0.042,0.283,0.117s0.119,0.178,0.119,0.285v43.823C128.434,51.443,128.254,51.623,128.032,51.623z M69.644,50.82
				h57.988V7.801c-11.967,0.06-22.172,0.2-22.274,0.202C105.182,8.019,85.138,10.058,69.644,50.82z"/>
		</g>
		<g>
			<g>
				<path style="fill:#D81F2C;" d="M127.763,58.587c0,1.724-1.397,3.12-3.12,3.12h-12.185c-1.723,0-3.12-1.396-3.12-3.12l0,0
					c0-1.723,1.396-3.12,3.12-3.12h12.185C126.366,55.467,127.763,56.864,127.763,58.587L127.763,58.587z"/>
				<path d="M124.643,62.108h-12.185c-1.942,0-3.521-1.579-3.521-3.521c0-1.941,1.579-3.521,3.521-3.521h12.185
					c1.942,0,3.521,1.58,3.521,3.521C128.164,60.529,126.585,62.108,124.643,62.108z M112.459,55.868
					c-1.499,0-2.719,1.22-2.719,2.719c0,1.5,1.22,2.719,2.719,2.719h12.185c1.499,0,2.719-1.219,2.719-2.719
					c0-1.499-1.22-2.719-2.719-2.719H112.459z"/>
			</g>
			<path style="fill:#FFFFFF;" d="M116.296,57.719c0,0.431-0.349,0.78-0.779,0.78h-3.045c-0.43,0-0.779-0.35-0.779-0.78l0,0
				c0-0.431,0.349-0.779,0.779-0.779h3.045C115.947,56.939,116.296,57.288,116.296,57.719L116.296,57.719z"/>
		</g>
		<g>
			<path style="fill:#E3F5F9;" d="M88.737,11.675c0.967-2.128-0.882-3.202-3.057-3.745c-2.974,1.739-6.112,4.06-9.154,7.173
				C65.021,26.875,54.358,50.688,54.358,50.688l7.49-0.686C68.47,34.952,88.737,11.675,88.737,11.675z"/>
			<path style="fill:#242425;" d="M54.358,51.089c-0.13,0-0.251-0.063-0.327-0.169c-0.083-0.115-0.098-0.267-0.04-0.396
				c0.107-0.239,10.825-24.014,22.249-35.702c2.777-2.842,5.885-5.277,9.238-7.238c0.091-0.054,0.2-0.068,0.299-0.043
				c1.811,0.453,2.957,1.155,3.407,2.089c0.316,0.653,0.288,1.399-0.082,2.213c-0.016,0.035-0.037,0.068-0.063,0.097
				c-0.202,0.232-20.303,23.404-26.824,38.225c-0.059,0.134-0.186,0.226-0.332,0.239l-7.49,0.684
				C54.381,51.088,54.369,51.089,54.358,51.089z M85.74,8.358c-3.236,1.911-6.238,4.273-8.927,7.024
				C66.526,25.908,56.788,46.386,55.01,50.224l6.567-0.601c6.525-14.621,25.808-37,26.818-38.166
				c0.248-0.572,0.271-1.057,0.067-1.479C88.136,9.303,87.197,8.745,85.74,8.358z"/>
		</g>
		<path d="M26.827,66.981c-0.341,0-0.659-0.221-0.766-0.564c-0.133-0.423,0.104-0.873,0.527-1.005L60.94,54.7
			c0.426-0.132,0.874,0.104,1.005,0.528c0.132,0.422-0.104,0.872-0.526,1.005L27.066,66.944
			C26.986,66.969,26.906,66.981,26.827,66.981z"/>
		<g>
			<path style="fill:#D81F2C;" d="M251.792,54.08c0,1.579-1.28,2.859-2.859,2.859H135.14c-1.578,0-2.859-1.28-2.859-2.859l0,0
				c0-1.578,1.281-2.858,2.859-2.858h113.794C250.513,51.222,251.792,52.502,251.792,54.08L251.792,54.08z"/>
			<path d="M248.934,57.341H135.14c-1.797,0-3.26-1.463-3.26-3.261c0-1.798,1.463-3.26,3.26-3.26h113.794
				c1.797,0,3.26,1.462,3.26,3.26C252.193,55.878,250.73,57.341,248.934,57.341z M135.14,51.623c-1.355,0-2.457,1.103-2.457,2.457
				s1.102,2.457,2.457,2.457h113.794c1.355,0,2.458-1.103,2.458-2.457s-1.102-2.457-2.458-2.457H135.14z"/>
		</g>
		<g>
			<g>
				<path style="fill:#4D4E50;" d="M23.325,77.885c0,4.826-3.03,8.739-6.769,8.739c-3.737,0-6.768-3.913-6.768-8.739
					c0-4.827,3.031-8.739,6.768-8.739C20.295,69.146,23.325,73.058,23.325,77.885z"/>
				<path d="M16.556,87.026c-3.953,0-7.17-4.101-7.17-9.142c0-5.04,3.217-9.141,7.17-9.141c3.954,0,7.17,4.101,7.17,9.141
					C23.726,82.926,20.51,87.026,16.556,87.026z M16.556,69.547c-3.511,0-6.367,3.74-6.367,8.338c0,4.599,2.856,8.338,6.367,8.338
					c3.512,0,6.368-3.739,6.368-8.338C22.924,73.287,20.068,69.547,16.556,69.547z"/>
			</g>
			<g>
				<path style="fill:#E7D988;" d="M21.153,77.563c0,3.822-2.399,6.922-5.361,6.922c-2.96,0-5.361-3.1-5.361-6.922
					c0-3.823,2.401-6.922,5.361-6.922C18.754,70.641,21.153,73.739,21.153,77.563z"/>
				<path d="M15.792,84.786c-3.122,0-5.662-3.241-5.662-7.224c0-3.982,2.539-7.223,5.662-7.223c3.123,0,5.662,3.24,5.662,7.223
					C21.455,81.545,18.915,84.786,15.792,84.786z M15.792,70.941c-2.79,0-5.06,2.971-5.06,6.621c0,3.651,2.27,6.621,5.06,6.621
					c2.79,0,5.059-2.97,5.059-6.621C20.852,73.912,18.583,70.941,15.792,70.941z"/>
			</g>
			<path style="fill:#FFFFFF;" d="M15.543,75.716c0,1.498-0.941,2.714-2.102,2.714c-1.16,0-2.102-1.216-2.102-2.714
				c0-1.5,0.941-2.715,2.102-2.715C14.602,73.001,15.543,74.216,15.543,75.716z"/>
		</g>
	</g>
	<g>
		<g>
			<path style="fill:#98171F;" d="M71.679,47.24l-7.122,3.194c0,0-1.807,0.618-1.907,2.022c-0.101,1.405,1.304,1.807,3.211,1.706
				c1.906-0.1,7.063,0.016,7.063,0.016L71.679,47.24z"/>
			<path d="M72.924,54.579c-0.003,0-0.006,0-0.009,0c-0.002,0-2.499-0.056-4.657-0.056c-1.066,0-1.866,0.014-2.376,0.041
				c-1.542,0.079-2.628-0.17-3.194-0.778c-0.33-0.354-0.477-0.811-0.438-1.358c0.117-1.649,2.092-2.346,2.176-2.374l7.088-3.181
				c0.113-0.05,0.244-0.045,0.352,0.012c0.109,0.058,0.186,0.162,0.208,0.284l1.246,6.938c0.021,0.118-0.012,0.24-0.09,0.332
				C73.152,54.528,73.041,54.579,72.924,54.579z M71.375,47.816L64.721,50.8c-0.049,0.019-1.59,0.567-1.67,1.687
				c-0.022,0.319,0.051,0.566,0.226,0.754c0.381,0.408,1.314,0.589,2.563,0.522c0.524-0.027,1.338-0.042,2.419-0.042
				c1.583,0,3.348,0.03,4.184,0.047L71.375,47.816z"/>
		</g>
		<g>
			<path style="fill:#D81F2C;" d="M76.104,40.684v-2.312c0,0-3.839-0.497-5.435,3.316c0,0-1.597,4.614-0.594,11.537
				c0,0,0.095,3.912,2.609,4.328c2.515,0.417,3.42-0.088,3.42-0.088V40.684z"/>
			<path d="M74.492,58.12L74.492,58.12c-0.563,0-1.192-0.058-1.874-0.17c-2.81-0.466-2.94-4.542-2.944-4.715
				c-1.002-6.892,0.548-11.486,0.615-11.679c1.723-4.117,5.867-3.583,5.866-3.583c0.2,0.027,0.351,0.197,0.351,0.398v19.094
				c0,0.145-0.079,0.279-0.206,0.35C76.244,57.848,75.72,58.12,74.492,58.12z M75.666,38.753c-1.002,0-3.458,0.3-4.626,3.09
				c-0.006,0.021-1.542,4.593-0.567,11.325c0.006,0.083,0.122,3.634,2.277,3.991c0.638,0.104,1.225,0.159,1.743,0.159l0,0
				c0.604,0,0.995-0.074,1.212-0.134V38.753C75.691,38.753,75.678,38.753,75.666,38.753z"/>
		</g>
		<path style="fill:#FFFFFF;" d="M73.644,41.99v-0.922c0,0-1.532-0.199-2.169,1.322c0,0-0.635,1.84-0.236,4.601
			c0,0,0.038,1.561,1.039,1.725c1.004,0.168,1.366-0.036,1.366-0.036V41.99z"/>
	</g>
</g>
</svg>
