<?xml version="1.0" encoding="UTF-8"?>
<svg id="Layer_1" data-name="Layer 1" xmlns="http://www.w3.org/2000/svg" viewBox="0 0 588.78 588.78">
  <defs>
    <style>
      .cls-1 {
        fill: #666;
      }

      .cls-2 {
        fill: #1a1a1a;
      }

      .cls-3 {
        stroke: #000;
        stroke-miterlimit: 10;
        stroke-width: 20.3px;
      }
    </style>
  </defs>
  <g>
    <polygon class="cls-1" points="265.79 289.95 260.5 492.2 324.43 492.87 323.09 290.56 265.79 289.95"/>
    <polygon class="cls-1" points="283.93 267.41 106.13 363.95 137.52 419.64 312.06 317.33 283.93 267.41"/>
    <polygon class="cls-1" points="312.52 271.84 140.02 166.13 107.48 221.16 283.36 321.16 312.52 271.84"/>
    <polygon class="cls-1" points="322.98 298.82 328.27 96.57 264.35 95.91 265.69 298.22 322.98 298.82"/>
    <polygon class="cls-1" points="304.85 321.37 482.64 224.83 451.26 169.13 276.72 271.45 304.85 321.37"/>
    <polygon class="cls-1" points="276.25 316.94 448.76 422.64 481.3 367.62 305.42 267.62 276.25 316.94"/>
  </g>
  <path class="cls-3" d="M294.39,10.15C137.41,10.15,10.15,137.41,10.15,294.39s127.26,284.24,284.24,284.24,284.24-127.26,284.24-284.24S451.37,10.15,294.39,10.15Zm0,483.88c-110.26,0-199.64-89.38-199.64-199.64S184.13,94.75,294.39,94.75s199.64,89.38,199.64,199.64-89.38,199.64-199.64,199.64Z"/>
  <path class="cls-1" d="M294.39,92.93c-111.26,0-201.46,90.2-201.46,201.46s90.2,201.46,201.46,201.46,201.46-90.2,201.46-201.46-90.2-201.46-201.46-201.46Zm0,391.81c-105.13,0-190.35-85.22-190.35-190.35S189.26,104.03,294.39,104.03s190.35,85.22,190.35,190.35-85.22,190.35-190.35,190.35Z"/>
  <g>
    <circle class="cls-2" cx="309.17" cy="319.62" r="9.67"/>
    <circle class="cls-2" cx="274.96" cy="316.25" r="9.67"/>
    <circle class="cls-2" cx="267.6" cy="282.66" r="9.67"/>
    <circle class="cls-2" cx="297.26" cy="265.28" r="9.67"/>
    <circle class="cls-2" cx="322.95" cy="288.12" r="9.67"/>
  </g>
</svg>