<?xml version="1.0" encoding="UTF-8"?>
<svg xmlns="http://www.w3.org/2000/svg" xmlns:xlink="http://www.w3.org/1999/xlink" viewBox="0 0 544.1 219.57">
  <defs>
    <style>
      .cls-1 {
        fill: #f15a24;
      }

      .cls-1, .cls-2, .cls-3, .cls-4, .cls-5, .cls-6, .cls-7, .cls-8, .cls-9, .cls-10 {
        stroke: #000;
        stroke-miterlimit: 10;
      }

      .cls-2 {
        fill: #ed1c24;
      }

      .cls-3 {
        fill: #ccc;
      }

      .cls-4 {
        fill: #b3b3b3;
      }

      .cls-5 {
        fill: #2ba9f5;
      }

      .cls-6 {
        fill: gray;
      }

      .cls-7 {
        fill: #c69c6d;
      }

      .cls-8 {
        fill: #534741;
      }

      .cls-9 {
        fill: #4d4d4d;
      }

      .cls-10 {
        fill: url(#Sky_9);
      }
    </style>
    <linearGradient id="Sky_9" data-name="Sky 9" x1="537.23" y1="138.14" x2="543.56" y2="138.14" gradientUnits="userSpaceOnUse">
      <stop offset=".2" stop-color="#d2d2cd"/>
      <stop offset=".5" stop-color="#c2c7d8"/>
      <stop offset=".75" stop-color="#8e9292"/>
      <stop offset="1" stop-color="#9ba4bd"/>
    </linearGradient>
  </defs>
  <g id="bed">
    <polyline class="cls-9" points="274.56 111.5 280.56 100.5 488.04 100.31 539.56 111.5"/>
  </g>
  <g id="Layer_3" data-name="Layer 3">
    <path class="cls-6" d="M375.31,152.77c2.89-1.66,6.4-2.26,11.26-2.2,9.61,.12,53.8-2.8,60,4s9.87,25.91,9.15,35.93h-5s-4-8-4-8l-2-9h-87.66"/>
    <path class="cls-6" d="M105.96,151.77c-2.89-1.66-6.4-2.26-11.26-2.2-9.61,.12-53.8-2.8-60,4s-9.87,25.91-9.15,35.93h5l4-8,2-9,82.66-.25"/>
    <path class="cls-6" d="M105.96,151.77c5.77,3.3,8.58,9.65,11.74,16.8,.62,1.4,1.1,2.61,1.51,3.68,1.58,4.16,1.98,6.23,4.49,9.32"/>
    <polygon class="cls-7" points="314.56 115.09 324.56 .5 333.17 .5 323.86 115.09 314.56 115.09"/>
    <polygon class="cls-7" points="476.17 115.09 466.17 .5 457.56 .5 466.86 115.09 476.17 115.09"/>
    <polygon class="cls-8" points="429.59 164.81 435.56 151.5 424.56 150.5 420.98 160.51 429.59 164.81"/>
    <polygon class="cls-8" points="392.56 150.5 395.15 162.5 388.65 165.06 385.15 151.5 392.56 150.5"/>
  </g>
  <g id="Layer_1" data-name="Layer 1">
    <path class="cls-5" d="M10.56,123.5c20.96-7.14,45.14-9.86,74-14,16.47-2.36,31.89-3.56,46-4,21.67-17,43.33-34,65-51h75l4,57h265l3,12-5,1-1,34.54c2.33,.15,3.67,.31,6,.46,.08,4.74,.71,10.96-1,18-1.36,5.61-3.23,10.31-5,14l-81-1c.08-1.83,.36-20.62-7-28,0,0-6.85-6.87-17-7-6.68-.08-40.59-2.52-56,3-16.61,5.95-14.66,20.28-18,32-61.18,0-163.82-2-225-2-2.55-1.24-6.04-3.36-9-7-3.16-3.89-2.97-6.15-6-13-3.17-7.16-5.98-13.5-11.74-16.8-2.89-1.66-6.4-2.26-11.26-2.2-9.61,.12-53.8-2.8-60,4s-9.72,25.98-9,36c-22.43,0,10.43,0-12,0l-3-13-8-1-2-17,11.16-.53-.75-21.17-3.41-1.3,3-12Z"/>
    <polygon class="cls-1" points="7.56 135.5 3.56 157.5 11.56 157.5 10.56 137.5 7.56 135.5"/>
    <path class="cls-5" d="M207.42,61h54.64l-4,115.5h-119.5c-4.14-22.82-9.42-56.36,1.5-60.5l67.36-55Z"/>
    <polygon class="cls-5" points="270.56 54.5 277.56 62.5 280.56 100.5 274.52 110.93 270.56 54.5"/>
    <polyline class="cls-1" points="537.24 135.5 543.56 135.5 542.56 123.5 537.56 124.5"/>
    <polyline class="cls-10" points="537.24 140.43 543.56 140.43 543.56 135.84 537.23 135.84"/>
    <polyline class="cls-2" points="537.23 140.45 543.56 140.5 542.73 159.32 536.57 158.81"/>
    <path class="cls-4" d="M211.21,65.62c15.67,.09,31.34,.19,47.01,.28-.4,14.71-1.86,31.39-2.26,46.11-33.69,.37-67.38,.73-101.07,1.1l56.31-47.48Z"/>
    <line class="cls-3" x1="274.52" y1="110.93" x2="270.56" y2="54.5"/>
    <polygon class="cls-3" points="276.85 67.94 279.06 98 275.74 103.79 272.91 63.43 276.85 67.94"/>
    <rect class="cls-3" x="231.06" y="120" width="17.92" height="4.32"/>
    <polygon class="cls-8" points="95.99 164.81 102.51 150.96 91.45 149.61 87.38 160.51 95.99 164.81"/>
    <polygon class="cls-8" points="56.56 149.5 59.56 160.5 53.05 163.06 49.56 149.5 56.56 149.5"/>
  </g>
</svg>